<svg width="120" height="28" viewBox="0 0 120 28" fill="none" xmlns="http://www.w3.org/2000/svg">
  <svg x="0" y="0" width="28" height="28" viewBox="0 0 1080 1080">
    <!-- White Background with Smooth Rounded Corners -->
  <rect width="1080" height="1080" rx="180" ry="180" fill="#ffffff" />
  
  <!-- Perfectly Centered Atlas Logo -->
  <g transform="translate(54, 54) scale(0.9)">
    <path
      fill="#15342d"
      fill-opacity="1"
      d="m 206.85509,1038.5027 c 26.91978,-8.687 106.49626,-26.3569 118.69869,-26.3569 2.12502,0 3.86366,-0.7026 3.86366,-1.5613 0,-0.8587 -0.67549,-1.5613 -1.50111,-1.5613 -2.5286,0 -4.80184,-11.63336 -3.7594,-19.23874 0.60416,-4.40778 -0.0425,-12.50143 -1.67033,-20.90891 -1.46083,-7.54456 -2.43111,-17.20199 -2.15618,-21.46103 l 0.49987,-7.74365 3.90326,-1.0782 c 2.14679,-0.593 14.5559,-1.14823 27.57581,-1.23378 25.5503,-0.16838 43.4226,-2.76393 53.13224,-7.71746 10.76747,-5.49311 23.90548,-8.43108 37.99781,-8.49718 l 13.54519,-0.0637 10.6115,4.96574 c 12.70461,5.94519 12.54897,6.03625 9.33355,-5.45948 -2.58228,-9.23209 -5.21404,-50.5198 -3.22026,-50.5198 7.4851,0 34.52472,25.53801 43.76024,41.32999 6.99509,11.96109 7.21228,12.12179 5.38393,3.98443 -6.0705,-27.01781 -20.98829,-47.82725 -46.75735,-65.22383 -16.35633,-11.04206 -25.24215,-34.10672 -21.69476,-56.31253 1.73117,-10.8367 9.51722,-27.97222 13.38434,-29.45615 5.05292,-1.93899 26.1093,5.69181 41.77285,15.13837 l 6.05581,3.6522 -1.61397,-3.00501 c -2.40334,-4.47472 -21.89056,-22.74558 -30.56684,-28.6589 l -7.5788,-5.16534 0.41332,-25.18429 0.4133,-25.18432 -4.24997,-15.61303 -4.24995,-15.61307 0.48628,-21.34001 c 0.5867,-25.7449 -0.39253,-24.60439 15.57348,-18.13781 l 13.01401,5.27095 8.58832,17.10342 8.58833,17.10345 8.58717,5.82397 c 8.26794,5.60742 32.41917,16.14236 33.81236,14.74911 0.37243,-0.37242 -2.49404,-2.53599 -6.37023,-4.80759 -19.05147,-11.1649 -28.20377,-22.89458 -35.99362,-46.12992 l -4.94654,-14.75441 -20.24113,-5.79334 c -19.28899,-5.52084 -58.32442,-21.26886 -58.36064,-23.54439 -0.008,-0.59147 3.19734,-1.55736 7.12614,-2.14652 10.68428,-1.60221 6.83447,-3.22387 -16.83961,-7.09339 l -21.40614,-3.49876 -14.69414,-13.39 C 377.02381,556.80585 361.63168,542.52493 350.90084,532.435 340.17,522.34508 330.34211,514.08969 329.0611,514.08969 c -1.28102,0 -9.27772,-7.7881 -17.77042,-17.30694 l -15.44127,-17.30689 -4.99252,-18.1644 c -2.74587,-9.99037 -4.83915,-18.31765 -4.6517,-18.50515 0.18747,-0.18773 5.7424,6.12825 12.34434,14.03496 l 12.00352,14.37568 16.84839,9.09141 c 9.26661,5.00027 20.36132,11.11297 24.65491,13.58378 4.29358,2.47082 22.54975,11.28278 40.56924,19.58207 18.01951,8.29934 35.23291,16.64131 38.25196,18.53758 l 5.4892,3.44783 21.85825,0.99542 c 43.0684,1.96124 67.79502,14.95701 85.48142,44.92691 3.22023,5.45671 5.85487,8.63344 5.85487,7.05952 0,-5.39349 -4.91373,-21.82476 -8.84897,-29.59067 l -3.93509,-7.76546 10.93004,1.01577 c 15.34559,1.42629 27.18581,6.3902 37.30775,15.64099 l 8.52862,7.79474 8.56065,-2.90982 c 4.70833,-1.60044 12.13862,-5.5794 16.51175,-8.84216 l 7.95103,-5.93233 5.72047,-12.90387 c 8.61787,-19.43966 23.33701,-28.53455 45.60895,-28.18143 22.12353,0.35043 37.19511,14.04906 47.98437,43.61227 l 4.48769,12.29659 -2.23981,4.27486 c -1.2748,2.43303 -3.55234,4.27482 -5.28623,4.27482 -2.08446,0 -4.28662,2.44736 -6.9739,7.75049 -2.16012,4.26272 -5.18699,8.42451 -6.72644,9.24836 -1.60554,0.85931 -3.69024,5.04382 -4.88939,9.81425 -1.14973,4.57389 -2.71494,9.52461 -3.47817,11.00151 l -1.38767,2.68524 -4.04454,-1.84284 -4.04447,-1.84281 -1.95275,2.67047 c -1.074,1.46884 -2.75346,2.67053 -3.73219,2.67053 -0.97876,0 -1.77951,0.70263 -1.77951,1.56133 0,0.85873 -1.08654,1.5613 -2.41456,1.5613 -1.32803,0 -3.61149,2.09675 -5.07429,4.65948 -5.39822,9.45714 -11.78569,6.80418 -24.81779,-10.30768 -4.98735,-6.54868 -10.13691,-13.28031 -11.44342,-14.95907 l -2.37546,-3.05242 -10.56891,9.68447 c -11.90786,10.91141 -12.33857,12.26616 -2.4773,7.79205 10.16186,-4.61053 11.48533,-4.15089 19.20779,6.67118 l 7.03291,9.85577 -2.40608,9.21386 c -3.22198,12.33856 -10.2019,27.43397 -16.91128,36.57387 l -5.49175,7.48133 -10.82384,3.4803 c -7.95797,2.55886 -12.61231,3.20339 -17.57869,2.43458 l -6.75492,-1.04586 4.68388,3.22005 c 2.57615,1.77111 5.52068,3.22473 6.54337,3.23041 8.03223,0.047 -4.06677,18.59751 -16.16526,24.78852 -1.85719,0.95036 -6.63644,7.70801 -10.62058,15.01701 -3.98414,7.30896 -7.85503,13.28903 -8.60204,13.28903 -3.69355,0 -15.2039,-11.2773 -20.71636,-20.2969 l -6.20236,-10.14849 1.02564,6.24521 c 2.0002,12.17948 6.00037,21.49865 13.45652,31.3496 7.49048,9.89632 15.19563,29.37656 17.86016,45.15435 3.04834,18.05047 5.1075,9.18025 5.32914,-22.95599 l 0.13691,-19.83329 14.47942,-4.6382 c 45.54899,-14.59059 90.75028,-14.10647 139.45064,1.49362 18.24893,5.84564 18.44939,6.10387 17.42918,22.45644 l -0.82031,13.14849 -7.05138,15.3129 c -3.87831,8.4221 -7.90712,18.12328 -8.95286,21.55814 -5.73974,18.85173 -19.9207,50.03472 -35.14636,77.28456 -8.91483,15.95504 -17.90356,39.54828 -17.90356,46.99225 v 4.58831 l 14.44203,9.49772 c 16.80532,11.05189 24.77077,15.23873 38.32983,20.14685 10.2244,3.70106 14.36417,7.58764 14.36417,13.48545 v 3.4602 l 7.41622,0.9878 c 32.31481,4.3038 86.9519,16.4675 115.14614,25.6346 17.36905,5.6475 17.24496,5.6533 -20.603,0.9646 -197.7483,-24.4973 -412.73792,-23.6874 -621.87358,2.3428 -29.33981,3.6519 -31.54448,3.6226 -19.51629,-0.259 z m 213.30662,-36.3892 c 17.49995,-1.2242 43.05948,-2.71769 56.79895,-3.3188 28.04768,-1.22714 28.18519,-0.81673 -3.37403,-10.06983 -43.28407,-12.69085 -103.02412,-22.92849 -107.52597,-18.4266 -1.56532,1.56534 -6.88803,23.55633 -6.03546,24.9358 0.42746,0.69172 4.78138,2.39861 9.6753,3.793 4.89392,1.39443 9.56548,3.16013 10.38127,3.92383 1.92138,1.7985 2.60222,1.7843 40.07994,-0.8374 z m 204.85646,-10.86795 c 0.53759,-3.92436 3.862,-12.87126 7.38698,-19.88201 8.01732,-15.94569 11.73901,-34.00768 13.95556,-67.72835 4.12066,-62.69017 7.83669,-72.42106 35.79963,-93.74585 9.47812,-7.22816 9.14461,-8.11047 -1.73871,-4.59931 -16.33027,5.26845 -29.12404,14.6122 -37.94773,27.71465 -7.45671,11.07263 -27.62495,20.08841 -53.04697,23.71342 l -12.54278,1.78854 -1.15107,18.31781 c -2.53948,40.41513 -12.41895,72.64603 -36.69317,119.70832 -0.2211,0.42958 18.81299,1.02075 42.29879,1.31429 l 42.70151,0.53342 z M 597.84444,684.84713 c 3.81927,-4.85537 8.82342,-20.22459 10.13539,-31.12853 l 0.92629,-7.69856 -2.99365,8.07466 c -1.64651,4.44112 -6.21676,14.31525 -10.15606,21.94255 -8.89005,17.21271 -7.8786,21.48037 2.08803,8.80988 z m 119.11258,-76.81651 c 6.63761,-13.54523 10.12117,-18.78573 13.94719,-20.98161 9.87128,-5.66531 10.40245,-12.83736 2.70814,-36.56913 l -3.13468,-9.66851 18.12427,-18.20847 c 12.21962,-12.27643 18.42122,-19.69349 19.03587,-22.76666 0.53406,-2.66984 2.92974,-5.96207 5.7831,-7.9469 17.2721,-12.01494 27.70436,-22.32624 34.48917,-34.08902 9.5074,-16.48296 9.86457,-16.33059 7.77525,3.31652 l -1.81815,17.09789 -8.74746,13.1445 c -4.81112,7.22943 -15.52604,26.7184 -23.81097,43.30872 -8.28492,16.59036 -18.5023,35.8855 -22.70529,42.87809 l -7.64184,12.7138 -17.25788,9.40697 c -9.49183,5.17379 -17.0279,8.93753 -16.74672,8.36381 z M 569.0776,538.65694 c -6.26197,-2.58053 -11.51346,-3.25673 -26.54219,-3.41764 l -18.73563,-0.20064 -6.7619,-3.54472 c -11.65565,-6.1102 -29.13168,-9.71651 -51.78699,-10.68674 l -21.07759,-0.90273 -7.80655,-3.92917 c -4.29356,-2.161 -21.15565,-9.99895 -37.47127,-17.41762 -76.54904,-34.80657 -104.15852,-57.88659 -116.82852,-97.66236 -25.12227,-78.86795 -13.48229,-165.13756 31.54633,-233.80526 9.52612,-14.52717 7.84172,-14.39164 15.64378,-1.25879 8.97754,15.11143 26.8159,38.67419 42.9704,56.75976 l 13.66404,15.29742 -6.19171,10.4641 c -40.50284,68.45058 -46.93214,126.07264 -21.22248,190.20455 5.17299,12.90384 9.98868,21.36573 7.88851,13.86126 C 348.48618,388.52979 358.50338,326.93 397.66025,259.97608 l 3.88742,-6.64705 9.60304,8.63774 c 29.44766,26.48758 71.05842,57.72841 104.20809,78.23801 l 21.50653,13.30606 -19.6343,32.27945 c -10.79889,17.75364 -30.43651,49.07145 -43.63916,69.59516 -13.20268,20.52363 -23.75628,37.56435 -23.45246,37.86814 3.73065,3.73058 65.32194,-71.25313 96.06129,-116.94881 4.47684,-6.65507 8.37564,-12.1001 8.66402,-12.1001 0.28861,0 14.84562,6.9626 32.34945,15.47245 39.36233,19.13676 74.42804,32.87468 110.38555,43.24637 9.17297,2.64588 -49.04661,70.26685 -81.25919,94.381 -12.13607,9.08498 -37.3957,25.14795 -38.88755,24.72907 -0.31288,-0.0879 -4.08174,-1.60729 -8.37538,-3.37663 z m 147.73549,-22.02046 c -9.36298,-9.96647 -30.56906,-16.46793 -45.09962,-13.82697 l -8.1358,1.47875 5.8343,-6.65728 c 23.00661,-26.25165 28.45665,-33.15015 39.11886,-49.51513 l 11.99329,-18.40804 4.68391,0.74611 c 2.57613,0.41013 12.76362,2.20427 22.63887,3.98656 9.87525,1.78227 26.56171,3.67719 37.08098,4.21094 10.51932,0.53402 19.12595,1.26397 19.12595,1.6228 0,8.93068 -45.68133,56.00497 -70.17741,72.31727 -13.53381,9.01232 -12.60389,8.79187 -17.06333,4.04499 z m 65.38254,-99.45074 c -16.80567,-1.56915 -45.89521,-6.15491 -48.2415,-7.60504 -1.23199,-0.76138 0.36749,-5.66712 5.15895,-15.82357 9.63301,-20.41872 21.92319,-57.84666 26.55488,-80.86921 2.13669,-10.62048 4.16908,-19.5942 4.51647,-19.94159 0.34777,-0.3474 9.5468,0.0428 20.44311,0.86794 10.89636,0.8248 24.64053,1.09479 30.54263,0.59994 l 10.73116,-0.89965 1.13623,7.57716 c 3.32333,22.1615 -2.70131,69.71474 -12.79271,100.97461 l -5.41829,16.78401 -9.67992,-0.21313 c -5.324,-0.11682 -15.65199,-0.77034 -22.95101,-1.45185 z m -78.84588,-15.03722 c -30.8226,-7.71265 -126.08299,-47.43303 -135.4287,-56.46916 -0.63605,-0.615 2.12489,-6.35899 6.13553,-12.76435 4.01059,-6.40541 17.76838,-28.85957 30.57285,-49.89815 12.80448,-21.03857 23.45485,-38.43124 23.66751,-38.65038 0.21237,-0.21917 9.10682,3.72626 19.76471,8.76752 32.48886,15.36749 67.4387,27.83366 92.36907,32.94689 10.53173,2.16005 10.21632,0.61181 5.02732,24.67566 -4.8922,22.68785 -14.13916,50.18777 -24.79701,73.74505 -8.3503,18.45706 -9.47835,19.60696 -17.31128,17.64692 z M 526.35054,321.65915 c -43.05811,-27.05312 -108.68603,-78.20494 -110.73921,-86.31253 -1.59717,-6.30687 45.9473,-55.13325 75.1694,-77.19614 l 8.65969,-6.53815 18.42491,16.35524 c 22.89735,20.32535 48.17351,39.35136 69.87539,52.59714 9.14502,5.58166 17.76633,10.93042 19.15851,11.88613 l 2.53123,1.73765 -27.82344,45.88211 c -15.3029,25.23519 -28.94912,47.8098 -30.32491,50.16585 -3.24998,5.56551 -1.41928,6.19533 -24.93157,-8.5773 z m 262.09025,-48.99206 c -3.00547,-0.33565 -7.64376,-0.96683 -10.30723,-1.40274 l -4.8427,-0.79255 -0.91509,-28.46649 c -1.6001,-49.7763 -13.80352,-96.77483 -31.99121,-123.20667 -17.21628,-25.020012 10.63789,-1.84205 34.37919,28.60754 19.0989,24.49549 35.45451,55.39239 45.33925,85.64897 5.90328,18.06971 9.92056,37.00066 8.215,38.71247 -1.19984,1.20423 -31.106,1.8788 -39.87721,0.89947 z m -56.28032,-10.71827 c -20.66533,-5.67549 -51.84866,-17.39924 -73.06932,-27.47129 l -19.27771,-9.14986 3.08002,-5.11376 c 1.69403,-2.81258 13.46206,-22.67844 26.15112,-44.14636 12.68908,-21.46793 26.02362,-43.95071 29.63217,-49.96173 l 6.56109,-10.92912 6.07326,0.38787 c 7.11163,0.4542 8.87423,2.36853 17.61251,19.12843 14.18031,27.19765 21.88411,61.11143 23.14178,101.87508 l 0.90322,29.27445 -3.73185,-0.11452 c -2.0525,-0.0631 -9.7368,-1.76363 -17.07629,-3.77931 z M 389.49023,209.33165 c -17.7492,-19.15736 -36.2521,-44.12528 -47.51879,-64.12209 l -5.07065,-8.99974 5.83655,-6.6133 c 20.14575,-22.82687 50.99483,-45.997787 81.41658,-61.152414 21.65727,-10.788621 21.39544,-10.789368 23.82514,0.06773 2.71269,12.121546 17.05969,40.143644 27.41511,53.546254 4.74099,6.13613 8.78944,11.74526 8.99652,12.46472 0.20707,0.71948 -5.94678,6.22903 -13.67524,12.24345 -19.39793,15.09582 -38.4169,33.26187 -54.72062,52.26669 -7.58105,8.83698 -14.59369,16.98437 -15.58367,18.10528 -1.43366,1.62323 -3.65638,0.0341 -10.92093,-7.80651 z m 213.88806,-4.554 c -27.4778,-16.90123 -65.11216,-45.49932 -78.79783,-59.87785 l -5.46459,-5.74123 3.12262,-2.3176 c 13.48348,-10.00737 60.20021,-28.74661 85.09105,-34.13211 22.81076,-4.935438 69.30666,-4.65504 77.59583,0.46795 1.86633,1.15346 -61.23423,109.61174 -64.3727,110.64492 -0.88518,0.29136 -8.61362,-3.77847 -17.17438,-9.04408 z M 496.53518,114.0984 c -14.79696,-18.58424 -29.723,-48.557008 -29.723,-59.686472 V 50.72466 l 12.10014,-3.246137 c 46.17866,-12.388504 102.18919,-11.869024 149.39306,1.385587 31.77918,8.923444 77.00919,31.273178 84.82349,41.914318 l 3.53392,4.812295 -5.09521,-0.898665 c -2.80235,-0.494277 -8.19853,-2.293811 -11.99151,-3.998986 -44.85891,-20.166936 -116.71128,-10.692606 -180.65343,23.820658 -17.18841,9.27757 -14.63207,9.325 -22.38746,-0.41531 z"
    />
  </g>
  </svg>
  <text x="36" y="19.5" font-family="Inter, ui-sans-serif, system-ui, -apple-system, sans-serif" font-size="16" font-weight="700" fill="#F8FAF9" letter-spacing="0.12em">ATLAS</text>
</svg>
